<svg width="250" height="351" viewBox="0 0 250 351" xmlns="http://www.w3.org/2000/svg" xmlns:xlink="http://www.w3.org/1999/xlink" xmlns:fi="http://pattern.flaticon.com/"><defs><path d="M577.83 456.128c1.225 9.385-1.635 17.545-8.568 24.48l-81.396 80.781c-3.672 4.08-8.465 7.551-14.381 10.404-5.916 2.857-11.729 4.693-17.439 5.508-.408 0-1.635.105-3.676.309-2.037.203-4.689.307-7.953.307-7.754 0-20.301-1.326-37.641-3.979s-38.555-9.182-63.645-19.584c-25.096-10.404-53.553-26.012-85.376-46.818-31.823-20.805-65.688-49.367-101.592-85.68-28.56-28.152-52.224-55.08-70.992-80.783-18.768-25.705-33.864-49.471-45.288-71.299-11.425-21.828-19.993-41.616-25.705-59.364S4.59 177.362 2.55 164.51-.306 141.56.102 134.216c.408-7.344.612-11.424.612-12.24.816-5.712 2.652-11.526 5.508-17.442s6.324-10.71 10.404-14.382L98.022 8.756c5.712-5.712 12.24-8.568 19.584-8.568 5.304 0 9.996 1.53 14.076 4.59s7.548 6.834 10.404 11.322l65.484 124.236c3.672 6.528 4.692 13.668 3.06 21.42-1.632 7.752-5.1 14.28-10.404 19.584l-29.988 29.988c-.816.816-1.53 2.142-2.142 3.978s-.918 3.366-.918 4.59c1.632 8.568 5.304 18.36 11.016 29.376 4.896 9.792 12.444 21.726 22.644 35.802s24.684 30.293 43.452 48.653c18.36 18.77 34.68 33.354 48.96 43.76 14.277 10.4 26.215 18.053 35.803 22.949 9.588 4.896 16.932 7.854 22.031 8.871l7.648 1.531c.816 0 2.145-.307 3.979-.918 1.836-.613 3.162-1.326 3.979-2.143l34.883-35.496c7.348-6.527 15.912-9.791 25.705-9.791 6.938 0 12.443 1.223 16.523 3.672h.611l118.115 69.768c8.571 5.308 13.67 12.038 15.303 20.198z" transform="matrix(.05879 0 0 .05879 116.005 70.008)" fill="#fff" id="a"/><g id="c" fill="#fff"><path d="M65.094 32.195h-7.916a3.74 3.74 0 0 0-3.738 3.745v.406a3.742 3.742 0 0 0 3.741 3.748h7.913a3.75 3.75 0 0 0 3.747-3.748l-.004-.411a3.738 3.738 0 0 0-3.743-3.74z" transform="translate(112.986 19.974) scale(.51418)"/><path d="M65.098 22.852h-1.649V4.734A4.748 4.748 0 0 0 58.714 0H27.475a4.748 4.748 0 0 0-4.734 4.734v12.999a2918.3 2918.3 0 0 0-12.814 7.292c-3.528 1.452-8.697 6.137-8.697 17.2 0 .988.065 1.9.156 2.781.029.258.061.506.096.755.091.647.205 1.266.341 1.854.049.21.087.429.14.63.183.68.395 1.318.633 1.925.12.301.25.575.381.857.14.297.281.589.432.862.175.329.35.646.542.947.046.07.096.134.143.205 4.556 6.887 12.961 6.918 12.961 6.918h5.686v5.379c0 2.601 2.13 4.731 4.734 4.731h31.238c2.605 0 4.735-2.131 4.735-4.731v-6.561h.722v-.004h.921a3.74 3.74 0 0 0 3.746-3.746l.004-.408a3.744 3.744 0 0 0-3.747-3.738H57.177a3.737 3.737 0 0 0-3.738 3.741v.415a3.745 3.745 0 0 0 3.741 3.743h2.974v2.534h-34.12V27.323c1.714-1.087 3.301-2.133 4.206-2.834 4.585-3.546 8.937-6.37 9.526-8.931.767-3.323-1.784-6.123-6.209-3.824-1.394.724-4.255 2.311-7.523 4.146V7.502l34.12.005V22.85h-2.043v.004h-.929a3.746 3.746 0 0 0-3.748 3.747v.406a3.741 3.741 0 0 0 3.743 3.742H65.096a3.74 3.74 0 0 0 3.741-3.742v-.417a3.737 3.737 0 0 0-3.739-3.738zM43.09 62.976a2.366 2.366 0 0 1 2.37 2.368 2.364 2.364 0 0 1-2.37 2.367 2.363 2.363 0 0 1-2.363-2.367 2.37 2.37 0 0 1 2.363-2.368zm5.003-58.418h-9.996a.574.574 0 0 1-.574-.57c0-.32.26-.575.574-.575h9.996a.57.57 0 0 1 .57.575c0 .314-.256.57-.57.57z" transform="translate(112.986 19.974) scale(.51418)"/><path d="M65.094 41.538h-7.916a3.748 3.748 0 0 0-3.743 3.746v.41a3.741 3.741 0 0 0 3.743 3.743H65.092a3.745 3.745 0 0 0 3.746-3.743v-.41a3.743 3.743 0 0 0-3.744-3.746z" transform="translate(112.986 19.974) scale(.51418)"/></g><path d="M332.797 13.699a5.003 5.003 0 0 0-5.404-.776L2.893 163.695a5.001 5.001 0 0 0-.096 9.023l91.833 45.068a5 5 0 0 0 5.196-.484l89.287-66.734-70.094 72.1a5 5 0 0 0-1.4 3.868l6.979 90.889a5 5 0 0 0 8.771 2.884l48.742-56.482 60.255 28.79a5 5 0 0 0 6.926-3.014L334.27 18.956a5 5 0 0 0-1.473-5.257z" transform="matrix(.11446 0 0 .11446 115.84 268.845)" id="e" fill="#fff"/><path d="M72.089.02L59.624 0C45.62 0 36.57 9.285 36.57 23.656v10.907H24.037a1.96 1.96 0 0 0-1.96 1.961v15.803a1.96 1.96 0 0 0 1.96 1.96H36.57v39.876a1.96 1.96 0 0 0 1.96 1.96h16.352a1.96 1.96 0 0 0 1.96-1.96V54.287h14.654a1.96 1.96 0 0 0 1.96-1.96l.006-15.803a1.963 1.963 0 0 0-1.961-1.961H56.842v-9.246c0-4.444 1.059-6.7 6.848-6.7l8.397-.003a1.96 1.96 0 0 0 1.959-1.96V1.98A1.96 1.96 0 0 0 72.089.02z" transform="matrix(.40306 0 0 .40306 114.628 118.614)" id="g" fill="#fff"/><path d="M430.117 261.543V420.56h-92.188V272.193c0-37.271-13.334-62.707-46.703-62.707-25.473 0-40.632 17.142-47.301 33.724-2.432 5.928-3.058 14.179-3.058 22.477V420.56h-92.219s1.242-251.285 0-277.32h92.21v39.309c-.187.294-.43.611-.606.896h.606v-.896c12.251-18.869 34.13-45.824 83.102-45.824 60.673-.001 106.157 39.636 106.157 124.818zM52.183 9.558C20.635 9.558 0 30.251 0 57.463c0 26.619 20.038 47.94 50.959 47.94h.616c32.159 0 52.159-21.317 52.159-47.94-.606-27.212-20-47.905-51.551-47.905zM5.477 420.56h92.184V143.24H5.477v277.32z" transform="matrix(.08433 0 0 .08433 115.862 167.865)" id="i" fill="#fff"/><g id="k" fill="#fff"><path d="M7 9L5.268 7.484.316 11.729c.18.167.423.271.691.271h11.986c.267 0 .509-.104.688-.271L8.732 7.484 7 9z" transform="translate(114.214 220.214) scale(2.68379)"/><path d="M13.684 2.271A1.007 1.007 0 0 0 12.993 2H1.007c-.267 0-.509.104-.689.273L7 8l6.684-5.729zM0 2.878v8.308l4.833-4.107zM9.167 7.079L14 11.186V2.875z" transform="translate(114.214 220.214) scale(2.68379)"/></g></defs><g fi:class="KUsePattern"><pattern id="b" width="350" height="350" patternUnits="userSpaceOnUse"><use xlink:href="#a" x="-350" y="-350"/><use xlink:href="#a" y="-350"/><use xlink:href="#a" x="350" y="-350"/><use xlink:href="#a" x="-350"/><use xlink:href="#a"/><use xlink:href="#a" x="350"/><use xlink:href="#a" x="-350" y="350"/><use xlink:href="#a" y="350"/><use xlink:href="#a" x="350" y="350"/></pattern><rect width="100%" height="100%" fill="url(#b)"/></g><g fi:class="KUsePattern"><pattern id="d" width="350" height="350" patternUnits="userSpaceOnUse"><use xlink:href="#c" x="-350" y="-350"/><use xlink:href="#c" y="-350"/><use xlink:href="#c" x="350" y="-350"/><use xlink:href="#c" x="-350"/><use xlink:href="#c"/><use xlink:href="#c" x="350"/><use xlink:href="#c" x="-350" y="350"/><use xlink:href="#c" y="350"/><use xlink:href="#c" x="350" y="350"/></pattern><rect width="100%" height="100%" fill="url(#d)"/></g><g fi:class="KUsePattern"><pattern id="f" width="350" height="350" patternUnits="userSpaceOnUse"><use xlink:href="#e" x="-350" y="-350"/><use xlink:href="#e" y="-350"/><use xlink:href="#e" x="350" y="-350"/><use xlink:href="#e" x="-350"/><use xlink:href="#e"/><use xlink:href="#e" x="350"/><use xlink:href="#e" x="-350" y="350"/><use xlink:href="#e" y="350"/><use xlink:href="#e" x="350" y="350"/></pattern><rect width="100%" height="100%" fill="url(#f)"/></g><g fi:class="KUsePattern"><pattern id="h" width="350" height="350" patternUnits="userSpaceOnUse"><use xlink:href="#g" x="-350" y="-350"/><use xlink:href="#g" y="-350"/><use xlink:href="#g" x="350" y="-350"/><use xlink:href="#g" x="-350"/><use xlink:href="#g"/><use xlink:href="#g" x="350"/><use xlink:href="#g" x="-350" y="350"/><use xlink:href="#g" y="350"/><use xlink:href="#g" x="350" y="350"/></pattern><rect width="100%" height="100%" fill="url(#h)"/></g><g fi:class="KUsePattern"><pattern id="j" width="350" height="350" patternUnits="userSpaceOnUse"><use xlink:href="#i" x="-350" y="-350"/><use xlink:href="#i" y="-350"/><use xlink:href="#i" x="350" y="-350"/><use xlink:href="#i" x="-350"/><use xlink:href="#i"/><use xlink:href="#i" x="350"/><use xlink:href="#i" x="-350" y="350"/><use xlink:href="#i" y="350"/><use xlink:href="#i" x="350" y="350"/></pattern><rect width="100%" height="100%" fill="url(#j)"/></g><g fi:class="KUsePattern"><pattern id="l" width="350" height="350" patternUnits="userSpaceOnUse"><use xlink:href="#k" x="-350" y="-350"/><use xlink:href="#k" y="-350"/><use xlink:href="#k" x="350" y="-350"/><use xlink:href="#k" x="-350"/><use xlink:href="#k"/><use xlink:href="#k" x="350"/><use xlink:href="#k" x="-350" y="350"/><use xlink:href="#k" y="350"/><use xlink:href="#k" x="350" y="350"/></pattern><rect width="100%" height="100%" fill="url(#l)"/></g></svg>