<svg width="400" height="300" viewBox="0 0 400 300" xmlns="http://www.w3.org/2000/svg" xmlns:xlink="http://www.w3.org/1999/xlink" xmlns:fi="http://pattern.flaticon.com/"><defs><path d="M311.175 115.775c-1.355-10.186-1.546-27.73 7.915-33.621.169-.108.295-.264.443-.398 7.735-2.474 13.088-5.946 8.886-10.618l-114.102-34.38L29.56 62.445S8.403 65.469 10.293 98.339c1.026 17.89 6.637 26.676 11.544 31l-15.161 4.569c-4.208 4.672 1.144 8.145 8.88 10.615.147.138.271.293.443.401 9.455 5.896 9.273 23.438 7.913 33.626-33.967 9.645-21.774 12.788-21.774 12.788l7.451 1.803c-5.241 4.736-10.446 13.717-9.471 30.75 1.891 32.864 19.269 35.132 19.269 35.132l120.904 39.298 182.49-44.202s12.197-3.148-21.779-12.794c-1.366-10.172-1.556-27.712 7.921-33.623.174-.105.301-.264.442-.396 7.736-2.474 13.084-5.943 8.881-10.615l-7.932-2.395c5.29-3.19 13.236-11.527 14.481-33.183.859-14.896-3.027-23.62-7.525-28.756l15.678-3.794c.001.006 12.198-3.142-21.773-12.788zm-152.642-.421l30.688-6.307 103.708-21.312 15.451-3.178c-4.937 9.036-4.73 21.402-3.913 29.35.179 1.798.385 3.44.585 4.688L288.14 122.8l-130.897 32.563 1.29-40.009zM26.71 147.337l15.449 3.178 99.597 20.474 8.701 1.782 26.093 5.363 1.287 40.01-134.534-33.471-13.263-3.296c.195-1.25.401-2.89.588-4.693.812-7.942 1.023-20.311-3.918-29.347zm-6.002-50.58c-.187-8.743 1.371-15.066 4.52-18.28 2.004-2.052 4.369-2.479 5.991-2.479.857 0 1.474.119 1.516.119l79.607 25.953 39.717 12.949-1.303 40.289L39.334 124.07l-5.88-1.647a3.56 3.56 0 0 0-.735-.113c-.459-.033-11.475-1.047-12.011-25.553zm119.871 184.109L23.28 247.98a3.489 3.489 0 0 0-.733-.116c-.467-.031-11.488-1.044-12.021-25.544-.19-8.754 1.376-15.071 4.519-18.288 2.009-2.052 4.375-2.479 5.994-2.479.859 0 1.474.115 1.519.115 0 0 .005 0 0 0l119.316 38.908-1.295 40.29zm153.705-41.407c.185 1.804.391 3.443.591 4.693l-147.812 36.771 1.292-40.01 31.601-6.497 4.667 1.129 17.492-5.685 80.631-16.569 15.457-3.18c-4.942 9.035-4.737 21.406-3.919 29.348zm8.142-54.375a2.84 2.84 0 0 0-.791.122l-11.148 3.121-106.148 29.764-1.298-40.289 34.826-11.359 84.327-27.501c.011-.005 4.436-.988 7.684 2.315 3.144 3.214 4.704 9.537 4.52 18.28-.55 24.498-11.571 25.516-11.972 25.547z" transform="translate(108 17) scale(.17906)" id="a" fill="#fff"/><g id="c" fill="#fff"><path d="M30.221 7.011V5.029l-.285-.112c-.1-.039-2.429-.943-5.535-.943-3.328 0-6.194 1.014-8.527 3.014-2.332-2-5.199-3.014-8.527-3.014-3.107 0-5.436.904-5.533.943l-.288.112v1.836C.586 7.041 0 7.356 0 7.87v18.918h13.934c.482.431 1.187.703 1.975.703.789 0 1.493-.272 1.975-.703h13.582V7.87c-.001-.418-.476-.691-1.245-.859zM15.723 25.296c-1.156-.479-5.14-1.992-9.13-1.992-1.577 0-2.974.242-4.163.72V5.655a16.158 16.158 0 0 1 4.916-.779c3.064 0 5.697.927 7.847 2.733v10.965l.53-.584v7.306zm13.593-1.267c-1.277-.514-2.744-.772-4.369-.772-3.988 0-7.783 1.528-8.926 2.03v-7.299l.533.586V7.609c2.149-1.807 4.782-2.733 7.846-2.733 2.322 0 4.221.548 4.916.779v18.374z" transform="translate(108 99) scale(1.90682)"/><path d="M4.217 8.071l.187.707c4.705-1.248 8.938 1.062 8.981 1.085l.355-.639c-.181-.101-4.528-2.477-9.523-1.153zM4.217 10.141l.187.707c4.705-1.249 8.938 1.061 8.981 1.084l.355-.638c-.181-.102-4.528-2.477-9.523-1.153zM4.217 12.086l.187.707c4.705-1.247 8.938 1.062 8.981 1.085l.355-.639c-.181-.101-4.528-2.476-9.523-1.153zM4.217 14.218l.187.707c4.705-1.248 8.938 1.062 8.981 1.085l.355-.638c-.181-.103-4.528-2.479-9.523-1.154zM4.217 16.193l.187.707c4.705-1.247 8.938 1.062 8.981 1.086l.355-.64c-.181-.1-4.528-2.476-9.523-1.153zM4.217 18.222l.187.707c4.705-1.248 8.938 1.061 8.981 1.084l.355-.639c-.181-.101-4.528-2.475-9.523-1.152zM4.217 20.257l.187.706c4.705-1.248 8.938 1.062 8.981 1.085l.355-.637c-.181-.103-4.528-2.479-9.523-1.154zM18.578 9.917c.043-.023 4.275-2.332 8.98-1.085l.188-.707c-4.996-1.323-9.342 1.053-9.523 1.154l.355.638zM18.223 11.349l.355.638c.043-.023 4.275-2.333 8.98-1.084l.188-.708c-4.996-1.324-9.342 1.051-9.523 1.154zM18.223 13.293l.355.639c.043-.024 4.275-2.333 8.98-1.086l.188-.707c-4.996-1.322-9.342 1.053-9.523 1.154zM18.223 15.426l.355.638c.043-.023 4.275-2.332 8.98-1.084l.188-.707c-4.996-1.326-9.342 1.05-9.523 1.153zM18.223 17.401l.355.64c.043-.023 4.275-2.333 8.98-1.086l.188-.707c-4.996-1.323-9.342 1.051-9.523 1.153zM18.223 19.43l.355.638c.043-.023 4.275-2.332 8.98-1.084l.188-.707c-4.996-1.324-9.342 1.051-9.523 1.153zM18.223 21.464l.355.637c.043-.021 4.275-2.333 8.98-1.084l.188-.707c-4.996-1.324-9.342 1.053-9.523 1.154z" transform="translate(108 99) scale(1.90682)"/></g><g id="e" fill="#fff"><path d="M392.996 28.338H20c-11.047 0-20 8.954-20 20v234c0 11.046 8.953 20 20 20h139.498v45.32h-54.283c-10.201 0-18.5 8.299-18.5 18.5s8.299 18.5 18.5 18.5h202.566c10.201 0 18.5-8.299 18.5-18.5s-8.299-18.5-18.5-18.5h-54.283v-45.32h139.498c11.047 0 20-8.954 20-20v-234c0-11.046-8.953-20-20-20zm-10 244H30v-214h352.996v214z" transform="translate(108 186) scale(.14528)"/><path d="M94.591 176.637l63.084 29.336a12.2 12.2 0 0 0 5.162 1.138c2.338 0 4.616-.664 6.597-1.924a12.212 12.212 0 0 0 5.666-10.335v-.322c0-4.751-2.785-9.115-7.096-11.119l-39.455-18.33 39.456-18.334a12.305 12.305 0 0 0 7.095-11.118v-.319c0-4.211-2.119-8.074-5.665-10.334a12.24 12.24 0 0 0-6.606-1.916c-1.778 0-3.563.391-5.16 1.133L94.59 153.525a12.306 12.306 0 0 0-7.091 11.117v.878c-.001 4.742 2.781 9.105 7.092 11.117zM175.662 236.389a12.303 12.303 0 0 0 9.901 5.029h.315a12.218 12.218 0 0 0 11.672-8.516l41.557-128.76a12.306 12.306 0 0 0-1.771-10.974 12.304 12.304 0 0 0-9.901-5.03h-.314a12.226 12.226 0 0 0-11.679 8.516L173.88 225.425a12.323 12.323 0 0 0 1.782 10.964zM237.896 135.628c0 4.746 2.782 9.11 7.095 11.122l39.455 18.33-39.455 18.33a12.304 12.304 0 0 0-7.096 11.119v.322c0 4.205 2.117 8.068 5.669 10.336a12.25 12.25 0 0 0 6.595 1.923c1.792 0 3.527-.383 5.169-1.142l63.081-29.335c4.307-2.009 7.089-6.372 7.089-11.115v-.878c0-4.748-2.783-9.112-7.093-11.117l-63.08-29.334a12.312 12.312 0 0 0-5.152-1.131 12.26 12.26 0 0 0-6.604 1.912 12.198 12.198 0 0 0-5.673 10.338v.32z" transform="translate(108 186) scale(.14528)"/></g><g id="g" fill="#fff"><path d="M413 304c-10 0-19.333 2-28 6-9.333 4-18.667 6-28 6s-18.667-2-28-6-18.833-6-28.5-6-19.167 2-28.5 6-18.667 6-28 6c-9.334 0-18.667-2-28-6-8.667-4-18-6-28-6s-19.667 2-29 6c-8.667 4-17.833 6-27.5 6s-18.833-2-27.5-6c-9.333-4-19-6-29-6-9.333 0-18.667 2-28 6s-18.333 6-27 6v44c8.667 0 17.667-2.333 27-7 9.333-4 18.833-6 28.5-6s19.167 2 28.5 6c6.667 3.333 14.333 5.333 23 6l-35 36c-12.667-8.667-24.333-7.333-35 4l-39 41c-6 5.333-9 12.167-9 20.5s2.833 15.333 8.5 21 12.333 8.5 20 8.5 14.5-3 20.5-9l39-41c10-10 11.667-21.333 5-34l48-49c5.333-2 8.333-3.333 9-4 9.333-4 19-6 29-6s19.333 2 28 6c9.333 4.667 18.667 7 28 7 9.334 0 18.668-2.333 28-7 9.333-4 19-6 29-6s19.333 2 28 6c9.335 4.667 18.668 7 28 7 9.335 0 18.668-2.333 28-7 9.333-4 18.833-6 28.5-6s19.167 2 28.5 6c9.335 4.667 18.668 7 28 7v-44c-9.333 0-18.667-2-28-6s-19-6-29-6zM460 234H265l61-60 7 3c4.667 2 9.5 1.833 14.5-.5s8.167-5.833 9.5-10.5c2.667-7.333 1.333-14-4-20l47-48c12 6.667 23 5 33-5l39-41c6-6 9-13 9-21s-2.833-14.833-8.5-20.5S460 2 452 2s-14.667 2.667-20 8l-39 41c-10.667 11.333-12 23.667-4 37l-49 51-98-38-8-4c-11.333-3.322-21.833-2.155-31.5 3.5-9.667 5.668-16.167 13.835-19.5 24.5l-30 105v4H20v55c6.667 0 13.667-1.667 21-5 10.667-5.333 22-8 34-8s23.667 2.667 35 8c6.667 3.333 13.833 5 21.5 5s14.834-1.667 21.5-5c11.333-5.333 23-8 35-8s23.667 2.667 35 8c6.667 3.333 13.667 5 21 5 7.335 0 14.669-1.667 22-5 10.667-5.333 22.167-8 34.5-8s23.833 2.667 34.5 8c7.335 3.333 14.668 5 22 5 7.335 0 14.668-1.667 22-5 10.667-5.333 22-8 34-8 8 0 14.333-1.667 19-5 8-3.333 18.667-9.333 32-18 4-2 7-4.5 9-7.5s2-5.667 0-8-6.333-3.5-13-3.5zm-224 0l25-84 50 19-63 65h-12z" transform="translate(232 22) scale(.12245)"/><path d="M249 49h-1l-5 10c-3.333 7.333-9.333 11-18 11h-13c8 11.333 19.333 17 34 17 10.667 0 20-4 28-12 7.496-7.496 11.479-16.163 11.952-26H249z" transform="translate(232 22) scale(.12245)"/><path d="M198 60h27c4 0 7-2.333 9-7l5-9c1.333-3.333 5-5 11-5h39c-2.667-10.667-8.167-19.833-16.5-27.5S254.667 0 244 0c-13.333 0-24.5 4.667-33.5 14S197 34.667 197 48c0 8 .333 12 1 12z" transform="translate(232 22) scale(.12245)"/></g><path d="M201.572 15.411L187.627 1.464a5.002 5.002 0 0 0-6.72-.32L157.931 20.12a5.003 5.003 0 0 0-.351 7.391l.964.964L102.8 84.219l-6.689-6.689c-3.932-3.933-9.165-6.099-14.734-6.099a20.37 20.37 0 0 0-13.743 5.295 37.652 37.652 0 0 0-7.907 10.162c-2.271 4.268-6.495 6.979-11.297 7.253-13.375.765-25.691 6.459-34.68 16.035-19.356 20.622-17.987 54.623 3.052 75.794 10.829 10.898 25.614 17.148 40.565 17.148h.003c13.992 0 27.013-5.314 36.662-14.962 8.861-8.861 14.141-20.784 14.867-33.57.274-4.845 2.852-8.989 6.894-11.087a37.595 37.595 0 0 0 10.288-7.842c.005-.006.122-.132.127-.139 7.485-8.154 7.177-20.714-.702-28.593l-6.687-6.687 55.744-55.744.962.962a4.995 4.995 0 0 0 7.39-.352l18.976-22.976a4.996 4.996 0 0 0-.319-6.717zM91.436 127.605c0 4.275-1.664 8.294-4.688 11.317a15.904 15.904 0 0 1-11.317 4.688 15.9 15.9 0 0 1-11.317-4.688 15.898 15.898 0 0 1-4.688-11.316c0-4.274 1.665-8.294 4.688-11.316a15.9 15.9 0 0 1 11.317-4.688c4.275 0 8.294 1.664 11.317 4.687a15.898 15.898 0 0 1 4.688 11.316zm-28.451 49.387a4.984 4.984 0 0 1-3.536 1.465 4.984 4.984 0 0 1-3.536-1.465l-29.869-29.869a5 5 0 1 1 7.071-7.07l29.869 29.869a4.999 4.999 0 0 1 .001 7.07z" transform="matrix(.2954 0 0 .2954 233 101)" id="i" fill="#fff"/><path d="M377.6 125.398c8.051-7.326 18.943-9.081 27.078-4.883l1.56-1.553c4.904-12.028 13.757-25.333 26.031-37.604 12.283-12.276 25.584-21.135 37.606-26.042l5.298-5.298c2.925-2.93 1.154-9.438-3.96-14.547L441.142 5.396C436.037.287 429.548-1.51 426.66 1.381l-5.238 5.236c-4.889 12.062-13.773 25.441-26.116 37.784-12.331 12.331-25.708 21.219-37.782 26.115l-1.082 1.078c5.178 8.233 3.574 19.979-4.168 28.487l-80.781 80.303c-3.494-.226-9.117-3.047-16.635-14.697-13.442-20.827-44.812-32.687-70.648 12.13s-4.408 52.227-77.991 60.774l.016.024c-25.982 1.429-50.592 11.36-69.375 30.136C-7.68 313.295-2.604 390.594 48.2 441.408c50.806 50.806 128.113 55.879 172.654 11.328.797-.797 1.557-1.639 2.324-2.46l.014.032s.293-.316.775-.866a100.123 100.123 0 0 0 9.636-12.343c11.461-16.27 27.822-45.524 24.159-76.081-5.538-46.129 37.694-44.021 55.619-55.623 17.921-11.598 24.249-21.607 24.77-33.218 0 0-21.352 15.028-40.855-4.476-15.677-15.678-8.708-42.391-1.947-56.529l82.251-85.774z" transform="matrix(.1242 0 0 .1242 237 186)" id="k" fill="#fff"/></defs><g fi:class="KUsePattern"><pattern id="b" width="350" height="350" patternUnits="userSpaceOnUse"><use xlink:href="#a" x="-350" y="-350"/><use xlink:href="#a" y="-350"/><use xlink:href="#a" x="350" y="-350"/><use xlink:href="#a" x="-350"/><use xlink:href="#a"/><use xlink:href="#a" x="350"/><use xlink:href="#a" x="-350" y="350"/><use xlink:href="#a" y="350"/><use xlink:href="#a" x="350" y="350"/></pattern><rect width="100%" height="100%" fill="url(#b)"/></g><g fi:class="KUsePattern"><pattern id="d" width="350" height="350" patternUnits="userSpaceOnUse"><use xlink:href="#c" x="-350" y="-350"/><use xlink:href="#c" y="-350"/><use xlink:href="#c" x="350" y="-350"/><use xlink:href="#c" x="-350"/><use xlink:href="#c"/><use xlink:href="#c" x="350"/><use xlink:href="#c" x="-350" y="350"/><use xlink:href="#c" y="350"/><use xlink:href="#c" x="350" y="350"/></pattern><rect width="100%" height="100%" fill="url(#d)"/></g><g fi:class="KUsePattern"><pattern id="f" width="350" height="350" patternUnits="userSpaceOnUse"><use xlink:href="#e" x="-350" y="-350"/><use xlink:href="#e" y="-350"/><use xlink:href="#e" x="350" y="-350"/><use xlink:href="#e" x="-350"/><use xlink:href="#e"/><use xlink:href="#e" x="350"/><use xlink:href="#e" x="-350" y="350"/><use xlink:href="#e" y="350"/><use xlink:href="#e" x="350" y="350"/></pattern><rect width="100%" height="100%" fill="url(#f)"/></g><g fi:class="KUsePattern"><pattern id="h" width="350" height="350" patternUnits="userSpaceOnUse"><use xlink:href="#g" x="-350" y="-350"/><use xlink:href="#g" y="-350"/><use xlink:href="#g" x="350" y="-350"/><use xlink:href="#g" x="-350"/><use xlink:href="#g"/><use xlink:href="#g" x="350"/><use xlink:href="#g" x="-350" y="350"/><use xlink:href="#g" y="350"/><use xlink:href="#g" x="350" y="350"/></pattern><rect width="100%" height="100%" fill="url(#h)"/></g><g fi:class="KUsePattern"><pattern id="j" width="350" height="350" patternUnits="userSpaceOnUse"><use xlink:href="#i" x="-350" y="-350"/><use xlink:href="#i" y="-350"/><use xlink:href="#i" x="350" y="-350"/><use xlink:href="#i" x="-350"/><use xlink:href="#i"/><use xlink:href="#i" x="350"/><use xlink:href="#i" x="-350" y="350"/><use xlink:href="#i" y="350"/><use xlink:href="#i" x="350" y="350"/></pattern><rect width="100%" height="100%" fill="url(#j)"/></g><g fi:class="KUsePattern"><pattern id="l" width="350" height="350" patternUnits="userSpaceOnUse"><use xlink:href="#k" x="-350" y="-350"/><use xlink:href="#k" y="-350"/><use xlink:href="#k" x="350" y="-350"/><use xlink:href="#k" x="-350"/><use xlink:href="#k"/><use xlink:href="#k" x="350"/><use xlink:href="#k" x="-350" y="350"/><use xlink:href="#k" y="350"/><use xlink:href="#k" x="350" y="350"/></pattern><rect width="100%" height="100%" fill="url(#l)"/></g></svg>